<svg xmlns="http://www.w3.org/2000/svg" xmlns:xlink="http://www.w3.org/1999/xlink" viewBox="0,0,256,256" width="400px" height="400px" fill-rule="nonzero"><g fill="#291e4b" fill-rule="nonzero" stroke="none" stroke-width="1" stroke-linecap="butt" stroke-linejoin="miter" stroke-miterlimit="10" stroke-dasharray="" stroke-dashoffset="0" font-family="none" font-weight="none" font-size="none" text-anchor="none" style="mix-blend-mode: normal"><g transform="scale(5.12,5.12)"><path d="M25,12c-6.49219,0 -12.37891,1.35938 -16.72656,3.62891c-4.34766,2.26953 -7.27344,5.53906 -7.27344,9.37109c0,3.83203 2.92578,7.10156 7.27344,9.37109c4.34766,2.26953 10.23437,3.62891 16.72656,3.62891c6.49219,0 12.37891,-1.35937 16.72656,-3.62891c4.34766,-2.26953 7.27344,-5.53906 7.27344,-9.37109c0,-3.83203 -2.92578,-7.10156 -7.27344,-9.37109c-4.34766,-2.26953 -10.23437,-3.62891 -16.72656,-3.62891zM25,14c6.21094,0 11.82422,1.32422 15.80078,3.40234c3.97656,2.07422 6.19922,4.80078 6.19922,7.59766c0,2.79688 -2.22266,5.52344 -6.19922,7.59766c-3.97656,2.07813 -9.58984,3.40234 -15.80078,3.40234c-6.21094,0 -11.82422,-1.32422 -15.80078,-3.40234c-3.97656,-2.07422 -6.19922,-4.80078 -6.19922,-7.59766c0,-2.79687 2.22266,-5.52344 6.19922,-7.59766c3.97656,-2.07812 9.58984,-3.40234 15.80078,-3.40234zM22.50781,16l-2.50781,12h2.625l1.26563,-6h2.09766c0.66797,0 1.11328,0.10938 1.32031,0.33203c0.20313,0.22266 0.24609,0.64453 0.12891,1.25l-0.95703,4.41797h2.66406l1.03906,-4.77734c0.22266,-1.14453 0.05469,-1.98437 -0.5,-2.49609c-0.56641,-0.51953 -1.5625,-0.72656 -3.04687,-0.72656h-2.33984l0.83203,-4zM11,20l-2.02734,11h2.64453l0.52734,-3h1.64844c3.44531,0 5.32031,-0.79687 6.01953,-3.75391c0.60156,-2.54297 -0.9375,-4.24609 -3.48047,-4.24609zM32,20l-2.02734,11h2.64453l0.52734,-3h1.64844c3.44531,0 5.32031,-0.79687 6.01953,-3.75391c0.60156,-2.54297 -0.9375,-4.24609 -3.48047,-4.24609zM13.27344,22h2.05859c1.71094,0 2.07031,0.76953 1.98047,1.625c-0.23047,2.20703 -1.60547,2.375 -3.08203,2.375h-1.71484zM34.27344,22h2.05859c1.71094,0 2.07031,0.76953 1.98047,1.625c-0.23047,2.20703 -1.60547,2.375 -3.08203,2.375h-1.71484z"></path></g></g></svg>