<svg xmlns="http://www.w3.org/2000/svg" xmlns:xlink="http://www.w3.org/1999/xlink" viewBox="0,0,256,256" width="400px" height="400px" fill-rule="nonzero"><g fill="#89c0f2" fill-rule="nonzero" stroke="none" stroke-width="1" stroke-linecap="butt" stroke-linejoin="miter" stroke-miterlimit="10" stroke-dasharray="" stroke-dashoffset="0" font-family="none" font-weight="none" font-size="none" text-anchor="none" style="mix-blend-mode: normal"><g transform="scale(2.56,2.56)"><path d="M34.69922,15c-0.30129,-0.00282 -0.59771,0.00934 -0.88867,0.03516c-1.16385,0.10325 -2.24226,0.43666 -3.2168,1.00586c-2.48087,1.44852 -3.89301,4.28133 -4.35742,7.95703c-0.44986,3.56047 0.0051,7.9782 1.21484,12.87695c-4.85096,1.38112 -8.90561,3.18182 -11.76172,5.34961c-2.94896,2.23827 -4.68945,4.88668 -4.68945,7.77539c0,2.88871 1.7405,5.537 4.68945,7.77539c2.85611,2.16792 6.91075,3.96997 11.76172,5.35156c-1.20976,4.89826 -1.66469,9.31444 -1.21484,12.875c0.46441,3.67583 1.87653,6.5085 4.35742,7.95703c1.19041,0.69476 2.54107,1.04598 4.00781,1.04492c0.93283,0 1.91332,-0.14036 2.93555,-0.41406c3.85446,-1.03277 8.14623,-3.99614 12.46289,-8.23047c4.31666,4.23433 8.60843,7.1977 12.46289,8.23047c1.02222,0.2737 2.00271,0.41406 2.93555,0.41406c1.46541,0 2.81727,-0.3494 4.00781,-1.04492c2.4809,-1.44854 3.89118,-4.28122 4.35547,-7.95703c0.44973,-3.56055 -0.0036,-7.97676 -1.21289,-12.875c4.85097,-1.38159 8.90561,-3.18364 11.76172,-5.35156c2.94895,-2.23839 4.68945,-4.88668 4.68945,-7.77539c0,-2.88871 -1.74049,-5.53712 -4.68945,-7.77539c-2.85611,-2.16779 -6.91075,-3.96849 -11.76172,-5.34961c1.20976,-4.89826 1.66469,-9.31444 1.21484,-12.875c-0.46442,-3.67582 -1.87653,-6.51045 -4.35742,-7.95898c-1.9492,-1.13846 -4.3163,-1.33376 -6.94336,-0.63086c-3.85467,1.03182 -8.14624,3.99804 -12.46289,8.23242c-4.31666,-4.23433 -8.60843,-7.19965 -12.46289,-8.23242c-0.98522,-0.264 -1.93401,-0.40171 -2.83789,-0.41016zM34.69531,15.99609c0.80675,0.00954 1.66675,0.13561 2.58203,0.38086c3.67521,0.98474 8.00616,3.91746 12.36914,8.26953c0.19527,0.19518 0.51177,0.19518 0.70703,0c4.363,-4.3521 8.69413,-7.2858 12.36914,-8.26953c2.44094,-0.6531 4.48889,-0.4602 6.17969,0.52734c2.13311,1.24547 3.42806,3.72953 3.86914,7.2207c0.44109,3.49117 0.0067,7.94754 -1.27344,12.95313c-0.06722,0.26388 0.08907,0.53303 0.35156,0.60547c4.97936,1.37274 9.05643,3.21341 11.85547,5.33789c2.79904,2.12448 4.29492,4.49122 4.29492,6.97852c0,2.48729 -1.49587,4.85391 -4.29492,6.97852c-2.79905,2.12461 -6.8761,3.96465 -11.85547,5.33789c-0.2625,0.07243 -0.41878,0.34159 -0.35156,0.60547c1.27966,5.00561 1.7144,9.46389 1.27344,12.95508c-0.44097,3.49119 -1.73604,5.97329 -3.86914,7.21875c-1.03308,0.60387 -2.19396,0.9082 -3.50391,0.9082c-0.83317,0 -1.72601,-0.12656 -2.67578,-0.38086v0.00195c-3.67521,-0.98474 -8.00616,-3.91941 -12.36914,-8.27148c-0.19527,-0.19518 -0.51177,-0.19518 -0.70703,0c-4.36298,4.35207 -8.69393,7.28674 -12.36914,8.27148v-0.00195c-0.94978,0.2543 -1.84261,0.38086 -2.67578,0.38086c-1.30925,0.00094 -2.47032,-0.30497 -3.50391,-0.9082c-2.13311,-1.24547 -3.42806,-3.72758 -3.86914,-7.21875c-0.44109,-3.49117 -0.0067,-7.94754 1.27344,-12.95312c0.06844,-0.26452 -0.08811,-0.535 -0.35156,-0.60742c-4.97937,-1.37324 -9.05642,-3.21328 -11.85547,-5.33789c-2.79905,-2.12461 -4.29492,-4.49122 -4.29492,-6.97852c0,-2.48729 1.49588,-4.85404 4.29492,-6.97852c2.79904,-2.12448 6.87611,-3.96515 11.85547,-5.33789c0.2625,-0.07243 0.41878,-0.34159 0.35156,-0.60547c-1.28016,-5.0061 -1.71452,-9.46208 -1.27344,-12.95312c0.44108,-3.49104 1.73601,-5.97522 3.86914,-7.2207c0.84546,-0.4938 1.77995,-0.78866 2.80859,-0.87891c0.25716,-0.02256 0.52015,-0.03248 0.78906,-0.0293zM34.61523,18c-0.93378,0 -1.78339,0.20657 -2.50977,0.63086c-1.76284,1.02909 -2.7151,3.31493 -2.97852,6.40039c-0.26342,3.08546 0.16464,7.03172 1.32617,11.56641c0.06732,0.26158 0.3302,0.42242 0.59375,0.36328c3.14834,-0.70867 6.59109,-1.24208 10.25,-1.57227c0.14723,-0.01348 0.28095,-0.09142 0.36523,-0.21289c2.14749,-3.09541 4.3807,-5.91332 6.62695,-8.37695c0.18069,-0.1975 0.17381,-0.50227 -0.01562,-0.69141c-4.05308,-4.06215 -8.03174,-6.86585 -11.51367,-7.79883c-0.75792,-0.20204 -1.47367,-0.30859 -2.14453,-0.30859zM65.38477,18c-0.67177,0 -1.38597,0.10666 -2.14453,0.30859c-3.48202,0.933 -7.46063,3.73866 -11.51367,7.80078c-0.18819,0.1889 -0.19507,0.49223 -0.01562,0.68945c2.2463,2.46369 4.47951,5.28062 6.62695,8.37695c0.08429,0.12147 0.218,0.19941 0.36523,0.21289c3.6589,0.33019 7.10061,0.86358 10.25,1.57227c0.26355,0.05914 0.52643,-0.1017 0.59375,-0.36328c1.16153,-4.53468 1.58959,-8.48082 1.32617,-11.56641c-0.26341,-3.08558 -1.21577,-5.37079 -2.97852,-6.40039c-0.72603,-0.42475 -1.5769,-0.63086 -2.50977,-0.63086zM34.61523,19c0.56514,0 1.19664,0.08948 1.88672,0.27344c3.0846,0.82651 6.86515,3.45182 10.72852,7.25586c-2.12124,2.35977 -4.22314,4.99549 -6.24805,7.89844c-3.42864,0.31848 -6.64885,0.82652 -9.64453,1.47852c-1.05001,-4.25496 -1.45525,-7.97502 -1.21484,-10.79102c0.24934,-2.92054 1.15717,-4.84518 2.48633,-5.62109c0.55762,-0.32571 1.21764,-0.49414 2.00586,-0.49414zM65.38477,19c0.78713,0 1.44794,0.16889 2.00391,0.49414c0.00065,0 0.0013,0 0.00195,0c1.32925,0.7764 2.23699,2.70238 2.48633,5.62305c0.24044,2.81653 -0.16448,6.53526 -1.21484,10.79102c-2.9964,-0.65199 -6.21591,-1.16199 -9.64453,-1.48047c-2.02496,-2.90387 -4.12685,-5.53879 -6.24805,-7.89844c3.8634,-3.80412 7.644,-6.42937 10.72852,-7.25586c0.69139,-0.18407 1.32049,-0.27344 1.88672,-0.27344zM49.9668,28.14453c-0.12967,0.0087 -0.25086,0.06754 -0.33789,0.16406c-1.64813,1.82241 -3.29213,3.83888 -4.89648,6.01758c-0.1139,0.15552 -0.12826,0.36266 -0.03692,0.53241c0.09134,0.16975 0.27212,0.27189 0.46466,0.26251c1.58504,-0.07666 3.19692,-0.12109 4.83984,-0.12109c1.64292,0 3.25502,0.0454 4.83984,0.12305c0.19323,0.00998 0.37488,-0.09241 0.46639,-0.26289c0.09151,-0.17048 0.07645,-0.37846 -0.03866,-0.53398c-1.60439,-2.17975 -3.24835,-4.19516 -4.89648,-6.01758c-0.10254,-0.1137 -0.25152,-0.17415 -0.4043,-0.16406zM50,29.43555c1.27351,1.43185 2.53968,3.00645 3.79102,4.66016c-1.25037,-0.04876 -2.5029,-0.0957 -3.79102,-0.0957c-1.28812,0 -2.54077,0.04742 -3.79102,0.0957c1.2516,-1.65353 2.51725,-3.22802 3.79102,-4.66016zM50,37c-2.45867,0 -4.82648,0.09376 -7.09766,0.26367c-0.15249,0.01144 -0.29136,0.09203 -0.37695,0.21875c-1.28017,1.90317 -2.52624,3.89401 -3.71289,5.97266c-1.22519,2.14785 -2.32532,4.2611 -3.31055,6.33008c-0.0653,0.13647 -0.0653,0.29517 0,0.43164c0.98523,2.06898 2.08532,4.18317 3.31055,6.33008c1.18574,2.0778 2.43191,4.06773 3.71094,5.9707c0.08601,0.12723 0.22571,0.20789 0.37891,0.21875c2.27118,0.16991 4.63898,0.26367 7.09766,0.26367c2.45867,0 4.82744,-0.09376 7.09961,-0.26367c0.15249,-0.01144 0.29136,-0.09203 0.37695,-0.21875c1.27903,-1.90297 2.52716,-3.8929 3.71289,-5.9707c1.22523,-2.14691 2.32532,-4.2611 3.31055,-6.33008c0.0653,-0.13647 0.0653,-0.29517 0,-0.43164c-0.98525,-2.07003 -2.08532,-4.18317 -3.31055,-6.33008c0,-0.00065 0,-0.0013 0,-0.00195c-1.18664,-2.07763 -2.43382,-4.06767 -3.71289,-5.9707c-0.08601,-0.12723 -0.22571,-0.20789 -0.37891,-0.21875c-2.27215,-0.16986 -4.63898,-0.26367 -7.09766,-0.26367zM39.13281,37.62891c-0.0261,-0.00074 -0.05222,0.00057 -0.07812,0.00391c-2.63915,0.31493 -5.11233,0.74117 -7.4043,1.25195c-0.13607,0.03036 -0.25328,0.11615 -0.32337,0.23667c-0.07009,0.12052 -0.08668,0.26482 -0.04577,0.3981c0.70017,2.26977 1.56595,4.65489 2.61328,7.13086c0.07551,0.17928 0.24813,0.2985 0.44254,0.30562c0.1944,0.00712 0.37529,-0.09914 0.46371,-0.27242c0.71289,-1.39989 1.46602,-2.80871 2.27344,-4.2207c0.00065,0 0.0013,0 0.00195,0c0.79618,-1.39456 1.61922,-2.7455 2.45898,-4.06641c0.09582,-0.151 0.1037,-0.34168 0.02068,-0.50008c-0.08303,-0.1584 -0.24432,-0.26039 -0.42302,-0.2675zM60.89453,37.62891c-0.0163,-0.00015 -0.03259,0.00051 -0.04883,0.00195c-0.17483,0.01423 -0.32942,0.11902 -0.40738,0.27614c-0.07796,0.15713 -0.0679,0.34361 0.02652,0.49144c0.83902,1.3213 1.66494,2.66923 2.46094,4.06445c0,0.00065 0,0.0013 0,0.00195c0.80646,1.41105 1.55951,2.81777 2.27344,4.21875c0.08807,0.17342 0.2687,0.28004 0.46309,0.27334c0.19439,-0.0067 0.36725,-0.12551 0.44316,-0.30459c1.04734,-2.47699 1.91217,-4.86132 2.61328,-7.13086c0.04158,-0.13326 0.02557,-0.27783 -0.04417,-0.39876c-0.06974,-0.12093 -0.18685,-0.2072 -0.32302,-0.23795c-2.2929,-0.51076 -4.76709,-0.93702 -7.40625,-1.25195c-0.01685,-0.00216 -0.0338,-0.00347 -0.05078,-0.00391zM50,38c2.34806,0 4.60187,0.09293 6.77734,0.25c1.21977,1.82395 2.4112,3.71766 3.54297,5.69922c1.17083,2.05158 2.21348,4.07066 3.16211,6.05078c-0.94883,1.97974 -1.991,3.9987 -3.16211,6.05078c-1.13072,1.9814 -2.32316,3.87527 -3.54297,5.69922c-2.17498,0.15699 -4.42994,0.25 -6.77734,0.25c-2.34806,0 -4.60273,-0.09293 -6.77734,-0.25c-1.21981,-1.82395 -2.41225,-3.71782 -3.54297,-5.69922c-1.17111,-2.05208 -2.21328,-4.07104 -3.16211,-6.05078c0.94865,-1.97928 1.99125,-3.99818 3.16211,-6.05078c1.13177,-1.98252 2.3244,-3.87544 3.54492,-5.69922c2.17399,-0.15698 4.42801,-0.25 6.77539,-0.25zM38.12109,38.80273c-0.64695,1.03795 -1.29308,2.07637 -1.91406,3.16406c-0.62762,1.09756 -1.19751,2.18664 -1.76562,3.27539c-0.7652,-1.88306 -1.45101,-3.72369 -2.00781,-5.47852c1.77962,-0.38157 3.69587,-0.69473 5.6875,-0.96094zM61.87891,38.80469c1.99136,0.26615 3.90539,0.57942 5.68555,0.96094c-0.55731,1.75438 -1.243,3.5937 -2.00781,5.47656c-0.5681,-1.08827 -1.13538,-2.17754 -1.76172,-3.27344c-0.62095,-1.08841 -1.26955,-2.12681 -1.91602,-3.16406zM28.82227,39.59961c-0.04028,0.00104 -0.08028,0.00694 -0.11914,0.01758c-4.50639,1.2413 -8.13621,2.82976 -10.67187,4.5957c-2.53566,1.76594 -4.03125,3.73879 -4.03125,5.78711c0,2.04832 1.49559,4.02117 4.03125,5.78711c2.53566,1.76595 6.16549,3.35435 10.67188,4.5957c0.26051,0.07088 0.53024,-0.07782 0.60938,-0.33594c0.96189,-3.13581 2.22669,-6.44142 3.7832,-9.83789c0.06102,-0.13264 0.06102,-0.28533 0,-0.41797c-1.55651,-3.39647 -2.82132,-6.70208 -3.7832,-9.83789c-0.06565,-0.21444 -0.26604,-0.35894 -0.49023,-0.35352zM71.14844,39.59961c-0.21336,0.00736 -0.39851,0.14937 -0.46094,0.35352c-0.9619,3.13487 -2.22671,6.44145 -3.7832,9.83789c-0.06102,0.13264 -0.06102,0.28533 0,0.41797c1.55651,3.39647 2.82131,6.70208 3.7832,9.83789c0.07913,0.25812 0.34887,0.40682 0.60938,0.33594c4.50639,-1.24135 8.13621,-2.82976 10.67188,-4.5957c2.53566,-1.76594 4.03125,-3.73878 4.03125,-5.78711c0,-2.04832 -1.49559,-4.02117 -4.03125,-5.78711c-2.53566,-1.76595 -6.16549,-3.35435 -10.67187,-4.5957c-0.04832,-0.01326 -0.09836,-0.01919 -0.14844,-0.01758zM28.54297,40.72852c0.93573,2.97603 2.10967,6.07964 3.5625,9.27148c-1.45283,3.19184 -2.62677,6.29545 -3.5625,9.27148c-4.20716,-1.19938 -7.62708,-2.69425 -9.93945,-4.30469c-2.39834,-1.67035 -3.60352,-3.41912 -3.60352,-4.9668c0,-1.54768 1.20518,-3.29649 3.60352,-4.9668c2.31237,-1.61043 5.73229,-3.1053 9.93945,-4.30469zM71.45703,40.72852c4.20716,1.19938 7.62708,2.69425 9.93945,4.30469c2.39834,1.67026 3.60352,3.41912 3.60352,4.9668c0,1.54768 -1.20518,3.29649 -3.60352,4.9668c-2.31237,1.61043 -5.73229,3.1053 -9.93945,4.30469c-0.93573,-2.97603 -2.10967,-6.07964 -3.5625,-9.27148c1.45285,-3.19191 2.62678,-6.29625 3.5625,-9.27148zM50,42c-4.40644,0 -8,3.59357 -8,8c0,4.40643 3.59356,8 8,8c4.40644,0 8,-3.59357 8,-8c0,-4.40643 -3.59356,-8 -8,-8zM50,44c3.32556,0 6,2.67445 6,6c0,3.32555 -2.67444,6 -6,6c-3.32556,0 -6,-2.67445 -6,-6c0,-3.32555 2.67444,-6 6,-6zM34.35547,53.04492c-0.2009,-0.00025 -0.38245,0.11975 -0.46094,0.30469c-1.0474,2.47513 -1.91219,4.86044 -2.61328,7.12891c-0.04158,0.13326 -0.02557,0.27783 0.04417,0.39876c0.06974,0.12093 0.18685,0.2072 0.32302,0.23795c2.29197,0.51078 4.76615,0.93703 7.4043,1.25195c0.19192,0.0228 0.3798,-0.06705 0.48253,-0.23076c0.10273,-0.16371 0.10193,-0.37196 -0.00207,-0.53487c-0.83886,-1.32005 -1.66377,-2.66891 -2.46094,-4.06445c-0.80563,-1.41135 -1.55868,-2.81903 -2.27148,-4.21875c-0.08522,-0.16762 -0.25727,-0.27327 -0.44531,-0.27344zM65.62891,53.04492c-0.18239,0.00591 -0.34708,0.11071 -0.42969,0.27344c-0.71289,1.39989 -1.46698,2.8077 -2.27344,4.21875c-0.79604,1.39431 -1.62192,2.74315 -2.46094,4.06445c-0.104,0.16291 -0.1048,0.37116 -0.00207,0.53487c0.10273,0.16371 0.29061,0.25355 0.48253,0.23076c2.63916,-0.31493 5.11236,-0.74118 7.4043,-1.25195c0.13653,-0.0303 0.25413,-0.11638 0.32427,-0.23737c0.07014,-0.12099 0.08642,-0.26581 0.04487,-0.39935c-0.7011,-2.2685 -1.56592,-4.65287 -2.61328,-7.12891c-0.08063,-0.19028 -0.27001,-0.31136 -0.47656,-0.30469zM34.44336,54.75977c0.56793,1.0879 1.13628,2.17777 1.76172,3.27344c0.62148,1.08799 1.26788,2.12538 1.91406,3.16211c-1.99024,-0.26611 -3.90463,-0.57956 -5.68359,-0.96094c0.55729,-1.75375 1.2431,-3.59292 2.00781,-5.47461zM65.55664,54.75977c0.76474,1.88211 1.45053,3.72099 2.00781,5.47461c-1.77887,0.38138 -3.69299,0.69484 -5.68359,0.96094c0.6462,-1.03682 1.29338,-2.07495 1.91406,-3.16211c0.62634,-1.0959 1.19405,-2.18557 1.76172,-3.27344zM69.07031,63.02539c-0.04012,-0.00024 -0.08012,0.00435 -0.11914,0.01367c-3.14836,0.70868 -6.58915,1.24208 -10.24805,1.57227c-0.14723,0.01348 -0.28095,0.09142 -0.36523,0.21289c-2.14747,3.09638 -4.3807,5.91332 -6.62695,8.37695c-0.18069,0.1975 -0.17381,0.50227 0.01562,0.69141c4.05308,4.06215 8.03174,6.86585 11.51367,7.79883c1.81608,0.48492 3.40563,0.40678 4.6543,-0.32227c1.76275,-1.0296 2.71523,-3.31467 2.97852,-6.40039c0.26329,-3.08572 -0.16608,-7.03122 -1.32812,-11.56641c-0.05535,-0.21813 -0.24961,-0.37242 -0.47461,-0.37695zM30.94922,63.02734c-0.23243,-0.00553 -0.43802,0.14987 -0.49609,0.375c-1.16102,4.53461 -1.58946,8.48084 -1.32617,11.56641c0.26328,3.08557 1.21575,5.37078 2.97852,6.40039c0.00065,0.00065 0.0013,0.0013 0.00195,0.00195c1.24842,0.72664 2.83708,0.80424 4.65234,0.32031c3.48193,-0.93298 7.46159,-3.73767 11.51367,-7.79883c0.18819,-0.1889 0.19507,-0.49223 0.01562,-0.68945c-2.24636,-2.46474 -4.47951,-5.28257 -6.62695,-8.37891c-0.08429,-0.12147 -0.218,-0.19941 -0.36523,-0.21289c-3.65791,-0.33019 -7.10166,-0.86359 -10.25,-1.57227c-0.03209,-0.00711 -0.0648,-0.01103 -0.09766,-0.01172zM68.66016,64.0918c1.05086,4.25629 1.45713,7.97629 1.2168,10.79297c-0.24921,2.92078 -1.15707,4.84469 -2.48633,5.62109c-0.95733,0.55895 -2.24066,0.66179 -3.89258,0.2207c-3.0846,-0.82651 -6.86515,-3.45182 -10.72852,-7.25586c2.12124,-2.35977 4.22312,-4.99456 6.24805,-7.89844c3.42857,-0.31848 6.64703,-0.82849 9.64258,-1.48047zM31.33789,64.09375c2.99564,0.65198 6.21488,1.16004 9.64258,1.47852c2.02498,2.9039 4.12687,5.53993 6.24805,7.90039c-3.86242,3.80308 -7.64198,6.4274 -10.72656,7.25391c-1.65073,0.44007 -2.935,0.33665 -3.89258,-0.2207c-1.32923,-0.77639 -2.23711,-2.70041 -2.48633,-5.62109c-0.24029,-2.81613 0.16527,-6.53603 1.21484,-10.79102zM45.10938,64.87891c-0.18341,0.00969 -0.34674,0.11915 -0.42543,0.2851c-0.07869,0.16595 -0.06008,0.36168 0.04848,0.50982c1.60439,2.17975 3.24835,4.19516 4.89648,6.01758c0.09481,0.10497 0.22964,0.16488 0.37109,0.16488c0.14145,0 0.27628,-0.05991 0.37109,-0.16488c1.64806,-1.82334 3.29213,-3.83888 4.89648,-6.01758c0.1139,-0.15552 0.12826,-0.36266 0.03692,-0.53241c-0.09134,-0.16975 -0.27212,-0.27189 -0.46466,-0.26251c-1.58504,0.07666 -3.19692,0.12109 -4.83984,0.12109c-1.64292,0 -3.2548,-0.04443 -4.83984,-0.12109c-0.01692,-0.00086 -0.03386,-0.00086 -0.05078,0zM46.20898,65.9043c1.25025,0.04819 2.5029,0.0957 3.79102,0.0957c1.28812,0 2.54077,-0.04742 3.79102,-0.0957c-1.2516,1.65355 -2.5172,3.2273 -3.79102,4.66016c-1.27376,-1.43214 -2.53944,-3.00608 -3.79102,-4.66016z"></path></g></g></svg>